{"title":"World War Z (2013) BDRip 720p","uid":8902938,"size":6271238188,"categoryP":"video","categoryS":"hd___movies","magnet":"?xt=urn:btih:d34b6233115dfab8960812a5f0e47be4e3afadd9&amp;dn=World+War+Z+%282013%29+BDRip+720p&amp;tr=udp%3A%2F%2Ftracker.openbittorrent.com%3A80&amp;tr=udp%3A%2F%2Fopen.demonii.com%3A1337&amp;tr=udp%3A%2F%2Ftracker.coppersurfer.tk%3A6969&amp;tr=udp%3A%2F%2Fexodus.desync.com%3A6969","seeders":1,"leechers":0,"uploader":"yfjfrj","files":1,"time":1378846290,"description":"General\nUnique ID                                : 220581657063502618851503190789783240050 (0xA5F27B5AA905FAE49394D6D364F33D72)\nComplete name                            : D:moviesWorld.War.Z.2013.Unrated.Cut.720p.BluRay.x264.DTS-WiKi.mkv\nFormat                                   : Matroska\nFormat version                           : Version 2\nFile size                                : 5.84 GiB\nDuration                                 : 2h 3mn\nOverall bit rate                         : 6 795 Kbps\nMovie name                               : Jubowo @ WiKi\nEncoded date                             : UTC 2013-09-09 02:34:59\nWriting application                      : mkvmerge v6.3.0 ('You can't stop me!') built on Jun 28 2013 20:09:41\nWriting library                          : libebml v1.3.0 + libmatroska v1.4.0\n\nVideo\nID                                       : 1\nFormat                                   : AVC\nFormat/Info                              : Advanced Video Codec\nFormat profile                           : &lt;a class=&quot;__cf_email__&quot; href=&quot;/cdn-cgi/l/email-protection&quot; data-cfemail=&quot;d098b9b7b8909ce4fee1&quot;&gt;[email&amp;#160;protected]&lt;/a&gt;&lt;script cf-hash='f9e31' type=&quot;text/javascript&quot;&gt;\n/* &lt;![CDATA[ */!function(){try{var t=&quot;currentScript&quot;in document?document.currentScript:function(){for(var t=document.getElementsByTagName(&quot;script&quot;),e=t.length;e--;)if(t[e].getAttribute(&quot;cf-hash&quot;))return t[e]}();if(t&amp;&amp;t.previousSibling){var e,r,n,i,c=t.previousSibling,a=c.getAttribute(&quot;data-cfemail&quot;);if(a){for(e=&quot;&quot;,r=parseInt(a.substr(0,2),16),n=2;a.length-n;n+=2)i=parseInt(a.substr(n,2),16)^r,e+=String.fromCharCode(i);e=document.createTextNode(e),c.parentNode.replaceChild(e,c)}}}catch(u){}}();/* ]]&gt; */&lt;/script&gt;\nFormat settings, CABAC                   : Yes\nFormat settings, ReFrames                : 12 frames\nCodec ID                                 : V_MPEG4/ISO/AVC\nDuration                                 : 2h 3mn\nBit rate                                 : 4 836 Kbps\nWidth                                    : 1 280 pixels\nHeight                                   : 536 pixels\nDisplay aspect ratio                     : 2.40:1\nFrame rate mode                          : Constant\nFrame rate                               : 23.976 fps\nColor space                              : YUV\nChroma subsampling                       : 4:2:0\nBit depth                                : 8 bits\nScan type                                : Progressive\nBits/(Pixel*Frame)                       : 0.294\nStream size                              : 4.04 GiB (69%)\nWriting library                          : x264 core 129 r2245+704+36 8e61944 tMod+MixAQ [8-bit@4:2:0 X86_64]\nEncoding settings                        : cabac=1 // deblock=1:-3:-3 / analyse=0x3:0x133 / me=umh / subme=11 / psy=1 / fade_compensate=0.00 / psy_rd=1.05:0.05 // me_range=32 / chroma_me=1 / trellis=2 / 8x8dct=1 / cqm=0 / deadzone=21,11 / fast_pskip=0 / chroma_qp_offset=-3 / threads=18 / lookahead_threads=3 / sliced_threads=0 / nr=0 / decimate=1 / interlaced=0 / bluray_compat=0 / constrained_intra=0 / fgo=0 / bframes=8 / b_pyramid=2 / b_adapt=2 / b_bias=0 / direct=3 / weightb=1 / open_gop=0 / weightp=2 / keyint=250 / keyint_min=23 / scenecut=40 / intra_refresh=0 / rc_lookahead=50 / rc=2pass / mbtree=1 / bitrate=4836 / ratetol=1.0 / qcomp=0.70 / qpmin=0 / qpmax=69 / qpstep=4 / cplxblur=20.0 / qblur=0.5 / ip_ratio=1.40 / aq=3 / aq-strength=0.90 / aq-sensitivity=10.00 / aq-ifactor=1.00 / aq-pfactor=1.00 / aq-bfactor=1.00 / aq2=0\nLanguage                                 : English\nDefault                                  : Yes\nForced                                   : No\n\nAudio #1\nID                                       : 2\nFormat                                   : AC-3\nFormat/Info                              : Audio Coding 3\nMode extension                           : CM (complete main)\nFormat settings, Endianness              : Big\nCodec ID                                 : A_AC3\nDuration                                 : 2h 3mn\nBit rate mode                            : Constant\nBit rate                                 : 448 Kbps\nChannel(s)                               : 6 channels\nChannel positions                        : Front: L C R, Side: L R, LFE\nSampling rate                            : 48.0 KHz\nBit depth                                : 16 bits\nCompression mode                         : Lossy\nStream size                              : 394 MiB (7%)\nLanguage                                 : Russian\nDefault                                  : Yes\nForced                                   : No\n\nAudio #2\nID                                       : 3\nFormat                                   : DTS\nFormat/Info                              : Digital Theater Systems\nMode                                     : 16\nFormat settings, Endianness              : Big\nCodec ID                                 : A_DTS\nDuration                                 : 2h 3mn\nBit rate mode                            : Constant\nBit rate                                 : 1 509 Kbps\nChannel(s)                               : 6 channels\nChannel positions                        : Front: L C R, Side: L R, LFE\nSampling rate                            : 48.0 KHz\nBit depth                                : 24 bits\nCompression mode                         : Lossy\nStream size                              : 1.30 GiB (22%)\nLanguage                                 : English\nDefault                                  : No\nForced                                   : No\n\nText\nID                                       : 4\nFormat                                   : UTF-8\nCodec ID                                 : S_TEXT/UTF8\nCodec ID/Info                            : UTF-8 Plain Text\nLanguage                                 : Russian\nDefault                                  : No\nForced                                   : No\n\nMenu\n00:00:00.000                             : en:00:00:00.000\n00:05:05.179                             : en:00:05:05.179\n00:13:53.999                             : en:00:13:53.999\n00:22:43.195                             : en:00:22:43.195\n00:29:46.034                             : en:00:29:46.034\n00:35:21.494                             : en:00:35:21.494\n00:42:23.457                             : en:00:42:23.457\n00:52:37.946                             : en:00:52:37.946\n00:58:53.821                             : en:00:58:53.821\n01:07:18.868                             : en:01:07:18.868\n01:15:11.757                             : en:01:15:11.757\n01:24:02.037                             : en:01:24:02.037\n01:29:08.801                             : en:01:29:08.801\n01:34:50.518                             : en:01:34:50.518\n01:43:45.469                             : en:01:43:45.469\n01:52:17.981                             : en:01:52:17.981\n01:55:51.653                             : en:01:55:51.653\n","torrent":{"xt":"urn:btih:d34b6233115dfab8960812a5f0e47be4e3afadd9","amp;dn":"World+War+Z+%282013%29+BDRip+720p","amp;tr":["udp%3A%2F%2Ftracker.openbittorrent.com%3A80","udp%3A%2F%2Fopen.demonii.com%3A1337","udp%3A%2F%2Ftracker.coppersurfer.tk%3A6969","udp%3A%2F%2Fexodus.desync.com%3A6969"],"infoHash":"d34b6233115dfab8960812a5f0e47be4e3afadd9","infoHashBuffer":{"type":"Buffer","data":[211,75,98,51,17,93,250,184,150,8,18,165,240,228,123,228,227,175,173,217]},"announce":[],"urlList":[]}}